<svg xmlns="http://www.w3.org/2000/svg" xmlns:xlink="http://www.w3.org/1999/xlink" xmlns:lucid="lucid" width="900" height="424.2"><g transform="translate(-330 -467.90000000000003)" lucid:page-tab-id="GoISggrQKe.h"><path d="M0 0h1760v1360H0z" fill="#fff"/><path d="M350 512.1h400v176H350z" stroke="#333" stroke-width="2" fill="#fff"/><path d="M350 549.7h400" stroke="#333" stroke-width="2" fill="none"/><use xlink:href="#a" transform="matrix(1,0,0,1,358,520.1) translate(157.05 14.6)"/><use xlink:href="#b" transform="matrix(1,0,0,1,362,557.7) translate(29.44999999999999 65.10000000000001)"/><use xlink:href="#c" transform="matrix(1,0,0,1,362,557.7) translate(79.19999999999999 65.10000000000001)"/><use xlink:href="#d" transform="matrix(1,0,0,1,362,557.7) translate(113.1 65.10000000000001)"/><use xlink:href="#e" transform="matrix(1,0,0,1,362,557.7) translate(193.8 65.10000000000001)"/><use xlink:href="#f" transform="matrix(1,0,0,1,362,557.7) translate(214.75 65.10000000000001)"/><use xlink:href="#g" transform="matrix(1,0,0,1,362,557.7) translate(268.1 65.10000000000001)"/><path d="M751.5 620.6h102.12" stroke="#333" fill="none"/><path d="M751.5 621.1h-.5v-1h.5z" stroke="#333" stroke-width=".05" fill="#333"/><path d="M868.38 620.6l-14.26 4.64v-9.28z" stroke="#333" fill="#333"/><path d="M870 492.1h340v39H870z" stroke="#333" stroke-width="2" fill="#cfe4ff"/><use xlink:href="#h" transform="matrix(1,0,0,1,878,500.09999999999997) translate(35.42499999999998 15.1)"/><use xlink:href="#i" transform="matrix(1,0,0,1,878,500.09999999999997) translate(76.07499999999999 15.1)"/><use xlink:href="#j" transform="matrix(1,0,0,1,878,500.09999999999997) translate(167.825 15.1)"/><use xlink:href="#k" transform="matrix(1,0,0,1,878,500.09999999999997) translate(220.775 15.1)"/><path d="M870 531.1h340v201H870z" stroke="#333" stroke-width="2" fill="#e3fae3"/><g><use xlink:href="#l" transform="matrix(1,0,0,1,878,539.0999999999999) translate(110.2 96.10000000000001)"/><use xlink:href="#m" transform="matrix(1,0,0,1,878,539.0999999999999) translate(162.8 96.10000000000001)"/></g><path d="M870 732.1h340v39H870z" stroke="#333" stroke-width="2" fill="#fcfcca"/><g><use xlink:href="#n" transform="matrix(1,0,0,1,878,740.0999999999999) translate(43.775000000000006 15.1)"/><use xlink:href="#o" transform="matrix(1,0,0,1,878,740.0999999999999) translate(84.42500000000001 15.1)"/><use xlink:href="#p" transform="matrix(1,0,0,1,878,740.0999999999999) translate(171.375 15.1)"/><use xlink:href="#q" transform="matrix(1,0,0,1,878,740.0999999999999) translate(217.375 15.1)"/></g><path d="M870 772.6h340v60H870z" stroke="#333" stroke-width="2" fill="#ff8f8f"/><g><use xlink:href="#r" transform="matrix(1,0,0,1,878,780.5999999999999) translate(21.32499999999999 14.799999999999999)"/><use xlink:href="#o" transform="matrix(1,0,0,1,878,780.5999999999999) translate(54.97499999999999 14.799999999999999)"/><use xlink:href="#s" transform="matrix(1,0,0,1,878,780.5999999999999) translate(141.92499999999998 14.799999999999999)"/><use xlink:href="#t" transform="matrix(1,0,0,1,878,780.5999999999999) translate(229.825 14.799999999999999)"/><use xlink:href="#u" transform="matrix(1,0,0,1,878,780.5999999999999) translate(297.675 14.799999999999999)"/><use xlink:href="#v" transform="matrix(1,0,0,1,878,780.5999999999999) translate(99.57499999999999 36.4)"/><use xlink:href="#w" transform="matrix(1,0,0,1,878,780.5999999999999) translate(158.475 36.4)"/></g><path d="M870 487.9h340v384.2H870z" stroke="#000" stroke-opacity="0" stroke-width="2" fill="#fff" fill-opacity="0"/><g><use xlink:href="#x" transform="matrix(1,0,0,1,875,492.90000000000003) translate(0 61.50000000000002)"/><use xlink:href="#y" transform="matrix(1,0,0,1,875,492.90000000000003) translate(0 83.10000000000002)"/><use xlink:href="#y" transform="matrix(1,0,0,1,875,492.90000000000003) translate(0 104.70000000000003)"/><use xlink:href="#y" transform="matrix(1,0,0,1,875,492.90000000000003) translate(0 126.30000000000004)"/><use xlink:href="#y" transform="matrix(1,0,0,1,875,492.90000000000003) translate(0 147.90000000000003)"/><use xlink:href="#y" transform="matrix(1,0,0,1,875,492.90000000000003) translate(0 169.50000000000003)"/><use xlink:href="#y" transform="matrix(1,0,0,1,875,492.90000000000003) translate(0 191.10000000000002)"/><use xlink:href="#y" transform="matrix(1,0,0,1,875,492.90000000000003) translate(0 212.70000000000002)"/><use xlink:href="#y" transform="matrix(1,0,0,1,875,492.90000000000003) translate(0 234.3)"/><use xlink:href="#y" transform="matrix(1,0,0,1,875,492.90000000000003) translate(0 255.9)"/><use xlink:href="#y" transform="matrix(1,0,0,1,875,492.90000000000003) translate(0 277.5)"/><use xlink:href="#y" transform="matrix(1,0,0,1,875,492.90000000000003) translate(0 299.09999999999997)"/><use xlink:href="#z" transform="matrix(1,0,0,1,875,492.90000000000003) translate(0 320.7)"/></g><defs><path d="M115-3C79 11 28 4 28-45v-112H4v-33h27l15-45h31v45h36v33H77v99c-1 23 16 31 38 25v30" id="A"/><path d="M185-48c-13 30-37 53-82 52C43 2 14-33 14-96s30-98 90-98c62 0 83 45 84 108H66c0 31 8 55 39 56 18 0 30-7 34-22zm-45-69c5-46-57-63-70-21-2 6-4 13-4 21h74" id="B"/><path d="M135-150c-39-12-60 13-60 57V0H25l-1-190h47c2 13-1 29 3 40 6-28 27-53 61-41v41" id="C"/><path d="M220-157c-53 9-28 100-34 157h-49v-107c1-27-5-49-29-50C55-147 81-57 75 0H25l-1-190h47c2 12-1 28 3 38 10-53 101-56 108 0 13-22 24-43 59-42 82 1 51 116 57 194h-49v-107c-1-25-5-48-29-50" id="D"/><path d="M25-224v-37h50v37H25zM25 0v-190h50V0H25" id="E"/><path d="M135-194c87-1 58 113 63 194h-50c-7-57 23-157-34-157-59 0-34 97-39 157H25l-1-190h47c2 12-1 28 3 38 12-26 28-41 61-42" id="F"/><path d="M133-34C117-15 103 5 69 4 32 3 11-16 11-54c-1-60 55-63 116-61 1-26-3-47-28-47-18 1-26 9-28 27l-52-2c7-38 36-58 82-57s74 22 75 68l1 82c-1 14 12 18 25 15v27c-30 8-71 5-69-32zm-48 3c29 0 43-24 42-57-32 0-66-3-65 30 0 17 8 27 23 27" id="G"/><path d="M25 0v-261h50V0H25" id="H"/><g id="a"><use transform="matrix(0.05,0,0,0.05,0,0)" xlink:href="#A"/><use transform="matrix(0.05,0,0,0.05,5.95,0)" xlink:href="#B"/><use transform="matrix(0.05,0,0,0.05,15.949999999999998,0)" xlink:href="#C"/><use transform="matrix(0.05,0,0,0.05,22.95,0)" xlink:href="#D"/><use transform="matrix(0.05,0,0,0.05,38.95,0)" xlink:href="#E"/><use transform="matrix(0.05,0,0,0.05,43.95,0)" xlink:href="#F"/><use transform="matrix(0.05,0,0,0.05,54.900000000000006,0)" xlink:href="#G"/><use transform="matrix(0.05,0,0,0.05,64.9,0)" xlink:href="#H"/></g><path fill="#333" d="M67-93c0 74 22 123 53 168H70C40 30 18-18 18-93s22-123 52-168h50c-32 44-53 94-53 168" id="I"/><path fill="#333" d="M195-6C206 82 75 100 31 46c-4-6-6-13-8-21l49-6c3 16 16 24 34 25 40 0 42-37 40-79-11 22-30 35-61 35-53 0-70-43-70-97 0-56 18-96 73-97 30 0 46 14 59 34l2-30h47zm-90-29c32 0 41-27 41-63 0-35-9-62-40-62-32 0-39 29-40 63 0 36 9 62 39 62" id="J"/><path fill="#333" d="M88-194c31-1 46 15 58 34l-1-101h50l1 261h-48c-2-10 0-23-3-31C134-8 116 4 84 4 32 4 16-41 15-95c0-56 19-97 73-99zm17 164c33 0 40-30 41-66 1-37-9-64-41-64s-38 30-39 65c0 43 13 65 39 65" id="K"/><path fill="#333" d="M135-194c52 0 70 43 70 98 0 56-19 99-73 100-30 1-46-15-58-35L72 0H24l1-261h50v104c11-23 29-37 60-37zM114-30c31 0 40-27 40-66 0-37-7-63-39-63s-41 28-41 65c0 36 8 64 40 64" id="L"/><path fill="#333" d="M102-93c0 74-22 123-52 168H0C30 29 54-18 53-93c0-74-22-123-53-168h50c30 45 52 94 52 168" id="M"/><g id="b"><use transform="matrix(0.05,0,0,0.05,0,0)" xlink:href="#I"/><use transform="matrix(0.05,0,0,0.05,5.95,0)" xlink:href="#J"/><use transform="matrix(0.05,0,0,0.05,16.900000000000002,0)" xlink:href="#K"/><use transform="matrix(0.05,0,0,0.05,27.85,0)" xlink:href="#L"/><use transform="matrix(0.05,0,0,0.05,38.800000000000004,0)" xlink:href="#M"/></g><path fill="#333" d="M135-150c-39-12-60 13-60 57V0H25l-1-190h47c2 13-1 29 3 40 6-28 27-53 61-41v41" id="N"/><path fill="#333" d="M85 4C-2 5 27-109 22-190h50c7 57-23 150 33 157 60-5 35-97 40-157h50l1 190h-47c-2-12 1-28-3-38-12 25-28 42-61 42" id="O"/><path fill="#333" d="M135-194c87-1 58 113 63 194h-50c-7-57 23-157-34-157-59 0-34 97-39 157H25l-1-190h47c2 12-1 28 3 38 12-26 28-41 61-42" id="P"/><g id="c"><use transform="matrix(0.05,0,0,0.05,0,0)" xlink:href="#N"/><use transform="matrix(0.05,0,0,0.05,7,0)" xlink:href="#O"/><use transform="matrix(0.05,0,0,0.05,17.950000000000003,0)" xlink:href="#P"/></g><path fill="#333" d="M111-147c44 9 85 22 84 75-1 49-35 65-84 68v31H91V-4C40-5 12-27 5-72l45-8c4 24 15 38 41 40-2-22 4-51-2-69-39-10-76-22-76-72 0-47 35-60 78-63v-23h20v23c47 1 70 23 78 62l-46 7c-4-18-12-32-32-34v62zm-20-63c-33-4-45 46-13 54 4 1 8 2 13 4v-58zm20 170c39 5 53-51 15-60-7-2-7-2-15-4v64" id="Q"/><path fill="#333" d="M135-194c53 0 70 44 70 98 0 56-19 98-73 100-31 1-45-17-59-34 3 33 2 69 2 105H25l-1-265h48c2 10 0 23 3 31 11-24 29-35 60-35zM114-30c33 0 39-31 40-66 0-38-9-64-40-64-56 0-55 130 0 130" id="R"/><path fill="#333" d="M123 10C108 53 80 86 19 72V37c35 8 53-11 59-39L3-190h52l48 148c12-52 28-100 44-148h51" id="S"/><path fill="#333" d="M115-3C79 11 28 4 28-45v-112H4v-33h27l15-45h31v45h36v33H77v99c-1 23 16 31 38 25v30" id="T"/><path fill="#333" d="M114-157C55-157 80-60 75 0H25v-261h50l-1 109c12-26 28-41 61-42 86-1 58 113 63 194h-50c-7-57 23-157-34-157" id="U"/><path fill="#333" d="M110-194c64 0 96 36 96 99 0 64-35 99-97 99-61 0-95-36-95-99 0-62 34-99 96-99zm-1 164c35 0 45-28 45-65 0-40-10-65-43-65-34 0-45 26-45 65 0 36 10 65 43 65" id="V"/><g id="d"><use transform="matrix(0.05,0,0,0.05,0,0)" xlink:href="#Q"/><use transform="matrix(0.05,0,0,0.05,10,0)" xlink:href="#I"/><use transform="matrix(0.05,0,0,0.05,15.949999999999998,0)" xlink:href="#R"/><use transform="matrix(0.05,0,0,0.05,26.899999999999995,0)" xlink:href="#S"/><use transform="matrix(0.05,0,0,0.05,36.9,0)" xlink:href="#T"/><use transform="matrix(0.05,0,0,0.05,42.85,0)" xlink:href="#U"/><use transform="matrix(0.05,0,0,0.05,53.800000000000004,0)" xlink:href="#V"/><use transform="matrix(0.05,0,0,0.05,64.75,0)" xlink:href="#P"/></g><path fill="#333" d="M14-72v-43h91v43H14" id="W"/><path fill="#333" d="M190-63c-7 42-38 67-86 67-59 0-84-38-90-98-12-110 154-137 174-36l-49 2c-2-19-15-32-35-32-30 0-35 28-38 64-6 74 65 87 74 30" id="X"/><g id="e"><use transform="matrix(0.05,0,0,0.05,0,0)" xlink:href="#W"/><use transform="matrix(0.05,0,0,0.05,5.95,0)" xlink:href="#X"/></g><path fill="#333" d="M142-158h-39l-4-90h48zm-75 0H28l-4-90h48" id="Y"/><path fill="#333" d="M25-224v-37h50v37H25zM25 0v-190h50V0H25" id="Z"/><g id="f"><use transform="matrix(0.05,0,0,0.05,0,0)" xlink:href="#Y"/><use transform="matrix(0.05,0,0,0.05,8.5,0)" xlink:href="#R"/><use transform="matrix(0.05,0,0,0.05,19.450000000000003,0)" xlink:href="#N"/><use transform="matrix(0.05,0,0,0.05,26.450000000000003,0)" xlink:href="#Z"/><use transform="matrix(0.05,0,0,0.05,31.450000000000003,0)" xlink:href="#P"/><use transform="matrix(0.05,0,0,0.05,42.400000000000006,0)" xlink:href="#T"/></g><path fill="#333" d="M62-158H24l-5-90h48" id="aa"/><path fill="#333" d="M199 0l-22-63H83L61 0H9l90-248h61L250 0h-51zm-33-102l-36-108c-10 38-24 72-36 108h72" id="ab"/><path fill="#333" d="M86-200l42-18 12 35-44 11 32 37-32 21-26-44-26 44-32-21 33-37-44-11 12-35 42 18-3-48h38" id="ac"/><path fill="#333" d="M23 0v-37h61v-169l-59 37v-38l62-41h46v211h57V0H23" id="ad"/><path fill="#333" d="M101-251c68 0 84 54 84 127C185-50 166 4 99 4S15-52 14-124c-1-75 17-127 87-127zm-1 216c37-5 36-46 36-89s4-89-36-89c-39 0-36 45-36 89 0 43-3 85 36 89" id="ae"/><path fill="#333" d="M24 0v-54h51V0H24" id="af"/><g id="g"><use transform="matrix(0.05,0,0,0.05,0,0)" xlink:href="#aa"/><use transform="matrix(0.05,0,0,0.05,4.25,0)" xlink:href="#ab"/><use transform="matrix(0.05,0,0,0.05,17.200000000000003,0)" xlink:href="#aa"/><use transform="matrix(0.05,0,0,0.05,21.450000000000003,0)" xlink:href="#ac"/><use transform="matrix(0.05,0,0,0.05,28.450000000000003,0)" xlink:href="#ad"/><use transform="matrix(0.05,0,0,0.05,38.45,0)" xlink:href="#ae"/><use transform="matrix(0.05,0,0,0.05,48.45,0)" xlink:href="#ae"/><use transform="matrix(0.05,0,0,0.05,58.45,0)" xlink:href="#af"/><use transform="matrix(0.05,0,0,0.05,63.45,0)" xlink:href="#af"/><use transform="matrix(0.05,0,0,0.05,68.45,0)" xlink:href="#af"/><use transform="matrix(0.05,0,0,0.05,73.45,0)" xlink:href="#af"/></g><path d="M24 0v-248h195v40H76v63h132v40H76v65h150V0H24" id="ag"/><path d="M169-182c-1-43-94-46-97-3 18 66 151 10 154 114 3 95-165 93-204 36-6-8-10-19-12-30l50-8c3 46 112 56 116 5-17-69-150-10-154-114-4-87 153-88 188-35 5 8 8 18 10 28" id="ah"/><path d="M24-248c93 1 206-16 204 79-1 75-69 88-152 82V0H24v-248zm52 121c47 0 100 7 100-41 0-47-54-39-100-39v80" id="ai"/><g id="h"><use transform="matrix(0.05,0,0,0.05,0,0)" xlink:href="#ag"/><use transform="matrix(0.05,0,0,0.05,12,0)" xlink:href="#ah"/><use transform="matrix(0.05,0,0,0.05,24,0)" xlink:href="#ai"/></g><path d="M67-93c0 74 22 123 53 168H70C40 30 18-18 18-93s22-123 52-168h50c-32 44-53 94-53 168" id="aj"/><path d="M144 0l-44-69L55 0H2l70-98-66-92h53l41 62 40-62h54l-67 91 71 99h-54" id="ak"/><path d="M88-194c31-1 46 15 58 34l-1-101h50l1 261h-48c-2-10 0-23-3-31C134-8 116 4 84 4 32 4 16-41 15-95c0-56 19-97 73-99zm17 164c33 0 40-30 41-66 1-37-9-64-41-64s-38 30-39 65c0 43 13 65 39 65" id="al"/><g id="i"><use transform="matrix(0.05,0,0,0.05,0,0)" xlink:href="#aj"/><use transform="matrix(0.05,0,0,0.05,5.95,0)" xlink:href="#ag"/><use transform="matrix(0.05,0,0,0.05,17.95,0)" xlink:href="#ak"/><use transform="matrix(0.05,0,0,0.05,27.950000000000003,0)" xlink:href="#A"/><use transform="matrix(0.05,0,0,0.05,33.9,0)" xlink:href="#B"/><use transform="matrix(0.05,0,0,0.05,43.9,0)" xlink:href="#F"/><use transform="matrix(0.05,0,0,0.05,54.85,0)" xlink:href="#al"/><use transform="matrix(0.05,0,0,0.05,65.8,0)" xlink:href="#B"/><use transform="matrix(0.05,0,0,0.05,75.8,0)" xlink:href="#al"/></g><path d="M190-63c-7 42-38 67-86 67-59 0-84-38-90-98-12-110 154-137 174-36l-49 2c-2-19-15-32-35-32-30 0-35 28-38 64-6 74 65 87 74 30" id="am"/><path d="M147 0L96-86 75-71V0H25v-261h50v150l67-79h53l-66 74L201 0h-54" id="an"/><g id="j"><use transform="matrix(0.05,0,0,0.05,0,0)" xlink:href="#ah"/><use transform="matrix(0.05,0,0,0.05,12,0)" xlink:href="#A"/><use transform="matrix(0.05,0,0,0.05,17.95,0)" xlink:href="#G"/><use transform="matrix(0.05,0,0,0.05,27.950000000000003,0)" xlink:href="#am"/><use transform="matrix(0.05,0,0,0.05,37.95,0)" xlink:href="#an"/></g><path d="M110-194c64 0 96 36 96 99 0 64-35 99-97 99-61 0-95-36-95-99 0-62 34-99 96-99zm-1 164c35 0 45-28 45-65 0-40-10-65-43-65-34 0-45 26-45 65 0 36 10 65 43 65" id="ao"/><path d="M102-93c0 74-22 123-52 168H0C30 29 54-18 53-93c0-74-22-123-53-168h50c30 45 52 94 52 168" id="ap"/><g id="k"><use transform="matrix(0.05,0,0,0.05,0,0)" xlink:href="#ai"/><use transform="matrix(0.05,0,0,0.05,12,0)" xlink:href="#ao"/><use transform="matrix(0.05,0,0,0.05,22.950000000000003,0)" xlink:href="#E"/><use transform="matrix(0.05,0,0,0.05,27.950000000000003,0)" xlink:href="#F"/><use transform="matrix(0.05,0,0,0.05,38.900000000000006,0)" xlink:href="#A"/><use transform="matrix(0.05,0,0,0.05,44.85000000000001,0)" xlink:href="#B"/><use transform="matrix(0.05,0,0,0.05,54.85,0)" xlink:href="#C"/><use transform="matrix(0.05,0,0,0.05,61.85,0)" xlink:href="#ap"/></g><path d="M160-131c35 5 61 23 61 61C221 17 115-2 30 0v-248c76 3 177-17 177 60 0 33-19 50-47 57zm-97-11c50-1 110 9 110-42 0-47-63-36-110-37v79zm0 115c55-2 124 14 124-45 0-56-70-42-124-44v89" id="aq"/><path d="M84 4C-5 8 30-112 23-190h32v120c0 31 7 50 39 49 72-2 45-101 50-169h31l1 190h-30c-1-10 1-25-2-33-11 22-28 36-60 37" id="ar"/><path d="M101-234c-31-9-42 10-38 44h38v23H63V0H32v-167H5v-23h27c-7-52 17-82 69-68v24" id="as"/><path d="M100-194c63 0 86 42 84 106H49c0 40 14 67 53 68 26 1 43-12 49-29l28 8c-11 28-37 45-77 45C44 4 14-33 15-96c1-61 26-98 85-98zm52 81c6-60-76-77-97-28-3 7-6 17-6 28h103" id="at"/><path d="M114-163C36-179 61-72 57 0H25l-1-190h30c1 12-1 29 2 39 6-27 23-49 58-41v29" id="au"/><g id="l"><use transform="matrix(0.05,0,0,0.05,0,0)" xlink:href="#aq"/><use transform="matrix(0.05,0,0,0.05,12,0)" xlink:href="#ar"/><use transform="matrix(0.05,0,0,0.05,22,0)" xlink:href="#as"/><use transform="matrix(0.05,0,0,0.05,26.649999999999995,0)" xlink:href="#as"/><use transform="matrix(0.05,0,0,0.05,31.649999999999995,0)" xlink:href="#at"/><use transform="matrix(0.05,0,0,0.05,41.65,0)" xlink:href="#au"/></g><path d="M185-189c-5-48-123-54-124 2 14 75 158 14 163 119 3 78-121 87-175 55-17-10-28-26-33-46l33-7c5 56 141 63 141-1 0-78-155-14-162-118-5-82 145-84 179-34 5 7 8 16 11 25" id="av"/><path d="M115-194c55 1 70 41 70 98S169 2 115 4C84 4 66-9 55-30l1 105H24l-1-265h31l2 30c10-21 28-34 59-34zm-8 174c40 0 45-34 45-75s-6-73-45-74c-42 0-51 32-51 76 0 43 10 73 51 73" id="aw"/><path d="M141-36C126-15 110 5 73 4 37 3 15-17 15-53c-1-64 63-63 125-63 3-35-9-54-41-54-24 1-41 7-42 31l-33-3c5-37 33-52 76-52 45 0 72 20 72 64v82c-1 20 7 32 28 27v20c-31 9-61-2-59-35zM48-53c0 20 12 33 32 33 41-3 63-29 60-74-43 2-92-5-92 41" id="ax"/><path d="M96-169c-40 0-48 33-48 73s9 75 48 75c24 0 41-14 43-38l32 2c-6 37-31 61-74 61-59 0-76-41-82-99-10-93 101-131 147-64 4 7 5 14 7 22l-32 3c-4-21-16-35-41-35" id="ay"/><g id="m"><use transform="matrix(0.05,0,0,0.05,0,0)" xlink:href="#av"/><use transform="matrix(0.05,0,0,0.05,12,0)" xlink:href="#aw"/><use transform="matrix(0.05,0,0,0.05,22,0)" xlink:href="#ax"/><use transform="matrix(0.05,0,0,0.05,32,0)" xlink:href="#ay"/><use transform="matrix(0.05,0,0,0.05,41,0)" xlink:href="#at"/></g><path d="M30 0v-248h187v28H63v79h144v27H63v87h162V0H30" id="az"/><path d="M30-248c87 1 191-15 191 75 0 78-77 80-158 76V0H30v-248zm33 125c57 0 124 11 124-50 0-59-68-47-124-48v98" id="aA"/><g id="n"><use transform="matrix(0.05,0,0,0.05,0,0)" xlink:href="#az"/><use transform="matrix(0.05,0,0,0.05,12,0)" xlink:href="#aq"/><use transform="matrix(0.05,0,0,0.05,24,0)" xlink:href="#aA"/></g><path d="M87 75C49 33 22-17 22-94c0-76 28-126 65-167h31c-38 41-64 92-64 168S80 34 118 75H87" id="aB"/><path d="M141 0L90-78 38 0H4l68-98-65-92h35l48 74 47-74h35l-64 92 68 98h-35" id="aC"/><path d="M59-47c-2 24 18 29 38 22v24C64 9 27 4 27-40v-127H5v-23h24l9-43h21v43h35v23H59v120" id="aD"/><path d="M117-194c89-4 53 116 60 194h-32v-121c0-31-8-49-39-48C34-167 62-67 57 0H25l-1-190h30c1 10-1 24 2 32 11-22 29-35 61-36" id="aE"/><path d="M85-194c31 0 48 13 60 33l-1-100h32l1 261h-30c-2-10 0-23-3-31C134-8 116 4 85 4 32 4 16-35 15-94c0-66 23-100 70-100zm9 24c-40 0-46 34-46 75 0 40 6 74 45 74 42 0 51-32 51-76 0-42-9-74-50-73" id="aF"/><g id="o"><use transform="matrix(0.05,0,0,0.05,0,0)" xlink:href="#aB"/><use transform="matrix(0.05,0,0,0.05,5.95,0)" xlink:href="#az"/><use transform="matrix(0.05,0,0,0.05,17.95,0)" xlink:href="#aC"/><use transform="matrix(0.05,0,0,0.05,26.950000000000003,0)" xlink:href="#aD"/><use transform="matrix(0.05,0,0,0.05,31.950000000000003,0)" xlink:href="#at"/><use transform="matrix(0.05,0,0,0.05,41.95,0)" xlink:href="#aE"/><use transform="matrix(0.05,0,0,0.05,51.95,0)" xlink:href="#aF"/><use transform="matrix(0.05,0,0,0.05,61.95,0)" xlink:href="#at"/><use transform="matrix(0.05,0,0,0.05,71.95,0)" xlink:href="#aF"/></g><path d="M135-143c-3-34-86-38-87 0 15 53 115 12 119 90S17 21 10-45l28-5c4 36 97 45 98 0-10-56-113-15-118-90-4-57 82-63 122-42 12 7 21 19 24 35" id="aG"/><g id="p"><use transform="matrix(0.05,0,0,0.05,0,0)" xlink:href="#aq"/><use transform="matrix(0.05,0,0,0.05,12,0)" xlink:href="#ax"/><use transform="matrix(0.05,0,0,0.05,22,0)" xlink:href="#aG"/><use transform="matrix(0.05,0,0,0.05,31,0)" xlink:href="#at"/></g><path d="M100-194c62-1 85 37 85 99 1 63-27 99-86 99S16-35 15-95c0-66 28-99 85-99zM99-20c44 1 53-31 53-75 0-43-8-75-51-75s-53 32-53 75 10 74 51 75" id="aH"/><path d="M24-231v-30h32v30H24zM24 0v-190h32V0H24" id="aI"/><path d="M33-261c38 41 65 92 65 168S71 34 33 75H2C39 34 66-17 66-93S39-220 2-261h31" id="aJ"/><g id="q"><use transform="matrix(0.05,0,0,0.05,0,0)" xlink:href="#aA"/><use transform="matrix(0.05,0,0,0.05,12,0)" xlink:href="#aH"/><use transform="matrix(0.05,0,0,0.05,22,0)" xlink:href="#aI"/><use transform="matrix(0.05,0,0,0.05,25.950000000000003,0)" xlink:href="#aE"/><use transform="matrix(0.05,0,0,0.05,35.95,0)" xlink:href="#aD"/><use transform="matrix(0.05,0,0,0.05,40.95,0)" xlink:href="#at"/><use transform="matrix(0.05,0,0,0.05,50.95,0)" xlink:href="#au"/><use transform="matrix(0.05,0,0,0.05,56.900000000000006,0)" xlink:href="#aJ"/></g><path d="M33 0v-248h34V0H33" id="aK"/><g id="r"><use transform="matrix(0.05,0,0,0.05,0,0)" xlink:href="#az"/><use transform="matrix(0.05,0,0,0.05,12,0)" xlink:href="#aK"/><use transform="matrix(0.05,0,0,0.05,17,0)" xlink:href="#aA"/></g><g id="s"><use transform="matrix(0.05,0,0,0.05,0,0)" xlink:href="#aK"/><use transform="matrix(0.05,0,0,0.05,5,0)" xlink:href="#aE"/><use transform="matrix(0.05,0,0,0.05,15,0)" xlink:href="#aG"/><use transform="matrix(0.05,0,0,0.05,24,0)" xlink:href="#aD"/><use transform="matrix(0.05,0,0,0.05,29,0)" xlink:href="#au"/><use transform="matrix(0.05,0,0,0.05,34.95,0)" xlink:href="#ar"/><use transform="matrix(0.05,0,0,0.05,44.95,0)" xlink:href="#ay"/><use transform="matrix(0.05,0,0,0.05,53.95,0)" xlink:href="#aD"/><use transform="matrix(0.05,0,0,0.05,58.95,0)" xlink:href="#aI"/><use transform="matrix(0.05,0,0,0.05,62.900000000000006,0)" xlink:href="#aH"/><use transform="matrix(0.05,0,0,0.05,72.9,0)" xlink:href="#aE"/></g><g id="t"><use transform="matrix(0.05,0,0,0.05,0,0)" xlink:href="#aA"/><use transform="matrix(0.05,0,0,0.05,12,0)" xlink:href="#aH"/><use transform="matrix(0.05,0,0,0.05,22,0)" xlink:href="#aI"/><use transform="matrix(0.05,0,0,0.05,25.950000000000003,0)" xlink:href="#aE"/><use transform="matrix(0.05,0,0,0.05,35.95,0)" xlink:href="#aD"/><use transform="matrix(0.05,0,0,0.05,40.95,0)" xlink:href="#at"/><use transform="matrix(0.05,0,0,0.05,50.95,0)" xlink:href="#au"/><use transform="matrix(0.05,0,0,0.05,56.900000000000006,0)" xlink:href="#aJ"/></g><path d="M0 4l72-265h28L28 4H0" id="aL"/><use transform="matrix(0.05,0,0,0.05,0,0)" xlink:href="#aL" id="u"/><path d="M233-177c-1 41-23 64-60 70L243 0h-38l-65-103H63V0H30v-248c88 3 205-21 203 71zM63-129c60-2 137 13 137-47 0-61-80-42-137-45v92" id="aM"/><g id="v"><use transform="matrix(0.05,0,0,0.05,0,0)" xlink:href="#aM"/><use transform="matrix(0.05,0,0,0.05,12.950000000000001,0)" xlink:href="#at"/><use transform="matrix(0.05,0,0,0.05,22.950000000000003,0)" xlink:href="#aD"/><use transform="matrix(0.05,0,0,0.05,27.950000000000003,0)" xlink:href="#ar"/><use transform="matrix(0.05,0,0,0.05,37.95,0)" xlink:href="#au"/><use transform="matrix(0.05,0,0,0.05,43.900000000000006,0)" xlink:href="#aE"/></g><path d="M205 0l-28-72H64L36 0H1l101-248h38L239 0h-34zm-38-99l-47-123c-12 45-31 82-46 123h93" id="aN"/><g id="w"><use transform="matrix(0.05,0,0,0.05,0,0)" xlink:href="#aN"/><use transform="matrix(0.05,0,0,0.05,12,0)" xlink:href="#aF"/><use transform="matrix(0.05,0,0,0.05,22,0)" xlink:href="#aF"/><use transform="matrix(0.05,0,0,0.05,32,0)" xlink:href="#au"/><use transform="matrix(0.05,0,0,0.05,37.95,0)" xlink:href="#at"/><use transform="matrix(0.05,0,0,0.05,47.95,0)" xlink:href="#aG"/><use transform="matrix(0.05,0,0,0.05,56.95,0)" xlink:href="#aG"/></g><g id="x"><use transform="matrix(0.05,0,0,0.05,0,0)" xlink:href="#aN"/><use transform="matrix(0.05,0,0,0.05,12,0)" xlink:href="#aN"/><use transform="matrix(0.05,0,0,0.05,24,0)" xlink:href="#aN"/><use transform="matrix(0.05,0,0,0.05,36,0)" xlink:href="#aN"/><use transform="matrix(0.05,0,0,0.05,48,0)" xlink:href="#aN"/><use transform="matrix(0.05,0,0,0.05,60,0)" xlink:href="#aN"/><use transform="matrix(0.05,0,0,0.05,72,0)" xlink:href="#aN"/><use transform="matrix(0.05,0,0,0.05,84,0)" xlink:href="#aN"/><use transform="matrix(0.05,0,0,0.05,96,0)" xlink:href="#aN"/><use transform="matrix(0.05,0,0,0.05,108,0)" xlink:href="#aN"/><use transform="matrix(0.05,0,0,0.05,120,0)" xlink:href="#aN"/><use transform="matrix(0.05,0,0,0.05,132,0)" xlink:href="#aN"/><use transform="matrix(0.05,0,0,0.05,144,0)" xlink:href="#aN"/><use transform="matrix(0.05,0,0,0.05,156,0)" xlink:href="#aN"/><use transform="matrix(0.05,0,0,0.05,168,0)" xlink:href="#aN"/><use transform="matrix(0.05,0,0,0.05,180,0)" xlink:href="#aN"/><use transform="matrix(0.05,0,0,0.05,192,0)" xlink:href="#aN"/><use transform="matrix(0.05,0,0,0.05,204,0)" xlink:href="#aN"/><use transform="matrix(0.05,0,0,0.05,216,0)" xlink:href="#aN"/><use transform="matrix(0.05,0,0,0.05,228,0)" xlink:href="#aN"/><use transform="matrix(0.05,0,0,0.05,240,0)" xlink:href="#aN"/><use transform="matrix(0.05,0,0,0.05,252,0)" xlink:href="#aN"/><use transform="matrix(0.05,0,0,0.05,264,0)" xlink:href="#aN"/><use transform="matrix(0.05,0,0,0.05,276,0)" xlink:href="#aN"/><use transform="matrix(0.05,0,0,0.05,288,0)" xlink:href="#aN"/><use transform="matrix(0.05,0,0,0.05,300,0)" xlink:href="#aN"/><use transform="matrix(0.05,0,0,0.05,312,0)" xlink:href="#aN"/></g><g id="y"><use transform="matrix(0.05,0,0,0.05,0,0)" xlink:href="#aN"/><use transform="matrix(0.05,0,0,0.05,12,0)" xlink:href="#aN"/><use transform="matrix(0.05,0,0,0.05,24,0)" xlink:href="#aN"/><use transform="matrix(0.05,0,0,0.05,36,0)" xlink:href="#aN"/><use transform="matrix(0.05,0,0,0.05,48,0)" xlink:href="#aN"/><use transform="matrix(0.05,0,0,0.05,60,0)" xlink:href="#aN"/><use transform="matrix(0.05,0,0,0.05,72,0)" xlink:href="#aN"/><use transform="matrix(0.05,0,0,0.05,84,0)" xlink:href="#aN"/><use transform="matrix(0.05,0,0,0.05,96,0)" xlink:href="#aN"/><use transform="matrix(0.05,0,0,0.05,108,0)" xlink:href="#aN"/><use transform="matrix(0.05,0,0,0.05,120,0)" xlink:href="#aN"/><use transform="matrix(0.05,0,0,0.05,132,0)" xlink:href="#aN"/><use transform="matrix(0.05,0,0,0.05,144,0)" xlink:href="#aN"/><use transform="matrix(0.05,0,0,0.05,156,0)" xlink:href="#aN"/><use transform="matrix(0.05,0,0,0.05,168,0)" xlink:href="#aN"/><use transform="matrix(0.05,0,0,0.05,180,0)" xlink:href="#aN"/><use transform="matrix(0.05,0,0,0.05,192,0)" xlink:href="#aN"/><use transform="matrix(0.05,0,0,0.05,204,0)" xlink:href="#aN"/><use transform="matrix(0.05,0,0,0.05,216,0)" xlink:href="#aN"/><use transform="matrix(0.05,0,0,0.05,228,0)" xlink:href="#aN"/><use transform="matrix(0.05,0,0,0.05,240,0)" xlink:href="#aN"/><use transform="matrix(0.05,0,0,0.05,252,0)" xlink:href="#aN"/><use transform="matrix(0.05,0,0,0.05,264,0)" xlink:href="#aN"/><use transform="matrix(0.05,0,0,0.05,276,0)" xlink:href="#aN"/><use transform="matrix(0.05,0,0,0.05,288,0)" xlink:href="#aN"/><use transform="matrix(0.05,0,0,0.05,300,0)" xlink:href="#aN"/><use transform="matrix(0.05,0,0,0.05,312,0)" xlink:href="#aN"/></g><g id="z"><use transform="matrix(0.05,0,0,0.05,0,0)" xlink:href="#aN"/><use transform="matrix(0.05,0,0,0.05,12,0)" xlink:href="#aN"/><use transform="matrix(0.05,0,0,0.05,24,0)" xlink:href="#aN"/><use transform="matrix(0.05,0,0,0.05,36,0)" xlink:href="#aN"/><use transform="matrix(0.05,0,0,0.05,48,0)" xlink:href="#aN"/><use transform="matrix(0.05,0,0,0.05,60,0)" xlink:href="#aN"/><use transform="matrix(0.05,0,0,0.05,72,0)" xlink:href="#aN"/><use transform="matrix(0.05,0,0,0.05,84,0)" xlink:href="#aN"/><use transform="matrix(0.05,0,0,0.05,96,0)" xlink:href="#aN"/><use transform="matrix(0.05,0,0,0.05,108,0)" xlink:href="#aN"/><use transform="matrix(0.05,0,0,0.05,120,0)" xlink:href="#aN"/><use transform="matrix(0.05,0,0,0.05,132,0)" xlink:href="#aN"/><use transform="matrix(0.05,0,0,0.05,144,0)" xlink:href="#aN"/><use transform="matrix(0.05,0,0,0.05,156,0)" xlink:href="#aN"/><use transform="matrix(0.05,0,0,0.05,168,0)" xlink:href="#aN"/><use transform="matrix(0.05,0,0,0.05,180,0)" xlink:href="#aN"/><use transform="matrix(0.05,0,0,0.05,192,0)" xlink:href="#aN"/><use transform="matrix(0.05,0,0,0.05,204,0)" xlink:href="#aN"/><use transform="matrix(0.05,0,0,0.05,216,0)" xlink:href="#aN"/><use transform="matrix(0.05,0,0,0.05,228,0)" xlink:href="#aN"/><use transform="matrix(0.05,0,0,0.05,240,0)" xlink:href="#aN"/><use transform="matrix(0.05,0,0,0.05,252,0)" xlink:href="#aN"/><use transform="matrix(0.05,0,0,0.05,264,0)" xlink:href="#aN"/><use transform="matrix(0.05,0,0,0.05,276,0)" xlink:href="#aN"/><use transform="matrix(0.05,0,0,0.05,288,0)" xlink:href="#aN"/><use transform="matrix(0.05,0,0,0.05,300,0)" xlink:href="#aN"/><use transform="matrix(0.05,0,0,0.05,312,0)" xlink:href="#aN"/></g></defs></g></svg>