<svg xmlns="http://www.w3.org/2000/svg" xmlns:xlink="http://www.w3.org/1999/xlink" xmlns:lucid="lucid" width="580" height="384.7"><g transform="translate(-590 -487.65)" lucid:page-tab-id="WIISp5FEj2us"><path d="M0 0h1760v1360H0z" fill="#fff"/><path d="M610 507.65h340v39H610z" stroke="#333" stroke-width="2" fill="#cfe4ff"/><use xlink:href="#a" transform="matrix(1,0,0,1,618,515.65) translate(35.42499999999998 15.1)"/><use xlink:href="#b" transform="matrix(1,0,0,1,618,515.65) translate(76.07499999999999 15.1)"/><use xlink:href="#c" transform="matrix(1,0,0,1,618,515.65) translate(167.825 15.1)"/><use xlink:href="#d" transform="matrix(1,0,0,1,618,515.65) translate(220.775 15.1)"/><path d="M610 546.65h340v201H610z" stroke="#333" stroke-width="2" fill="#e3fae3"/><use xlink:href="#e" transform="matrix(1,0,0,1,618,554.6499999999999) translate(110.2 96.10000000000001)"/><use xlink:href="#f" transform="matrix(1,0,0,1,618,554.6499999999999) translate(162.8 96.10000000000001)"/><path d="M610 747.65h340v39H610z" stroke="#333" stroke-width="2" fill="#fcfcca"/><use xlink:href="#g" transform="matrix(1,0,0,1,618,755.6499999999999) translate(43.775000000000006 15.1)"/><use xlink:href="#h" transform="matrix(1,0,0,1,618,755.6499999999999) translate(84.42500000000001 15.1)"/><use xlink:href="#i" transform="matrix(1,0,0,1,618,755.6499999999999) translate(171.375 15.1)"/><use xlink:href="#j" transform="matrix(1,0,0,1,618,755.6499999999999) translate(217.375 15.1)"/><path d="M610 788.15h340v60H610z" stroke="#333" stroke-width="2" fill="#ff8f8f"/><use xlink:href="#k" transform="matrix(1,0,0,1,618,796.1499999999999) translate(21.32499999999999 14.799999999999999)"/><use xlink:href="#h" transform="matrix(1,0,0,1,618,796.1499999999999) translate(54.97499999999999 14.799999999999999)"/><use xlink:href="#l" transform="matrix(1,0,0,1,618,796.1499999999999) translate(141.92499999999998 14.799999999999999)"/><use xlink:href="#m" transform="matrix(1,0,0,1,618,796.1499999999999) translate(229.825 14.799999999999999)"/><use xlink:href="#n" transform="matrix(1,0,0,1,618,796.1499999999999) translate(297.675 14.799999999999999)"/><use xlink:href="#o" transform="matrix(1,0,0,1,618,796.1499999999999) translate(99.57499999999999 36.4)"/><use xlink:href="#p" transform="matrix(1,0,0,1,618,796.1499999999999) translate(158.475 36.4)"/><path d="M610 507.65h340v344.7H610z" stroke="#000" stroke-opacity="0" stroke-width="2" fill="#fff" fill-opacity="0"/><g><use xlink:href="#q" transform="matrix(1,0,0,1,615,512.6500000000001) translate(0 52.300000000000004)"/><use xlink:href="#r" transform="matrix(1,0,0,1,615,512.6500000000001) translate(0 73.9)"/><use xlink:href="#r" transform="matrix(1,0,0,1,615,512.6500000000001) translate(0 95.50000000000001)"/><use xlink:href="#r" transform="matrix(1,0,0,1,615,512.6500000000001) translate(0 117.10000000000002)"/><use xlink:href="#r" transform="matrix(1,0,0,1,615,512.6500000000001) translate(0 138.70000000000002)"/><use xlink:href="#r" transform="matrix(1,0,0,1,615,512.6500000000001) translate(0 160.3)"/><use xlink:href="#r" transform="matrix(1,0,0,1,615,512.6500000000001) translate(0 181.9)"/><use xlink:href="#r" transform="matrix(1,0,0,1,615,512.6500000000001) translate(0 203.5)"/><use xlink:href="#r" transform="matrix(1,0,0,1,615,512.6500000000001) translate(0 225.1)"/><use xlink:href="#r" transform="matrix(1,0,0,1,615,512.6500000000001) translate(0 246.7)"/><use xlink:href="#r" transform="matrix(1,0,0,1,615,512.6500000000001) translate(0 268.29999999999995)"/><use xlink:href="#s" transform="matrix(1,0,0,1,615,512.6500000000001) translate(0 289.9)"/></g><path d="M970 546.65h80v241.5h-80z" fill="none"/><path d="M970 788.15c5.52 0 10-4.48 10-10V677.4c0-5.52 4.48-10 10-10-5.52 0-10-4.48-10-10V556.65c0-5.52-4.48-10-10-10" stroke="#333" stroke-width="2" fill="none"/><g><use xlink:href="#t" transform="matrix(1,0,0,1,1005,551.65) translate(-3.8249999999999993 119.60000000000001)"/></g><path d="M970 792.85h180v55.3H970z" fill="none"/><path d="M970 848.15c5.52 0 10-4.48 10-10v-7.65c0-5.52 4.48-10 10-10-5.52 0-10-4.48-10-10v-7.65c0-5.52-4.48-10-10-10" stroke="#333" stroke-width="2" fill="none"/><g><use xlink:href="#u" transform="matrix(1,0,0,1,1005,797.8499999999997) translate(7.574999999999996 26.6)"/><use xlink:href="#v" transform="matrix(1,0,0,1,1005,797.8499999999997) translate(66.475 26.6)"/></g><defs><path d="M24 0v-248h195v40H76v63h132v40H76v65h150V0H24" id="w"/><path d="M169-182c-1-43-94-46-97-3 18 66 151 10 154 114 3 95-165 93-204 36-6-8-10-19-12-30l50-8c3 46 112 56 116 5-17-69-150-10-154-114-4-87 153-88 188-35 5 8 8 18 10 28" id="x"/><path d="M24-248c93 1 206-16 204 79-1 75-69 88-152 82V0H24v-248zm52 121c47 0 100 7 100-41 0-47-54-39-100-39v80" id="y"/><g id="a"><use transform="matrix(0.05,0,0,0.05,0,0)" xlink:href="#w"/><use transform="matrix(0.05,0,0,0.05,12,0)" xlink:href="#x"/><use transform="matrix(0.05,0,0,0.05,24,0)" xlink:href="#y"/></g><path d="M67-93c0 74 22 123 53 168H70C40 30 18-18 18-93s22-123 52-168h50c-32 44-53 94-53 168" id="z"/><path d="M144 0l-44-69L55 0H2l70-98-66-92h53l41 62 40-62h54l-67 91 71 99h-54" id="A"/><path d="M115-3C79 11 28 4 28-45v-112H4v-33h27l15-45h31v45h36v33H77v99c-1 23 16 31 38 25v30" id="B"/><path d="M185-48c-13 30-37 53-82 52C43 2 14-33 14-96s30-98 90-98c62 0 83 45 84 108H66c0 31 8 55 39 56 18 0 30-7 34-22zm-45-69c5-46-57-63-70-21-2 6-4 13-4 21h74" id="C"/><path d="M135-194c87-1 58 113 63 194h-50c-7-57 23-157-34-157-59 0-34 97-39 157H25l-1-190h47c2 12-1 28 3 38 12-26 28-41 61-42" id="D"/><path d="M88-194c31-1 46 15 58 34l-1-101h50l1 261h-48c-2-10 0-23-3-31C134-8 116 4 84 4 32 4 16-41 15-95c0-56 19-97 73-99zm17 164c33 0 40-30 41-66 1-37-9-64-41-64s-38 30-39 65c0 43 13 65 39 65" id="E"/><g id="b"><use transform="matrix(0.05,0,0,0.05,0,0)" xlink:href="#z"/><use transform="matrix(0.05,0,0,0.05,5.95,0)" xlink:href="#w"/><use transform="matrix(0.05,0,0,0.05,17.95,0)" xlink:href="#A"/><use transform="matrix(0.05,0,0,0.05,27.950000000000003,0)" xlink:href="#B"/><use transform="matrix(0.05,0,0,0.05,33.9,0)" xlink:href="#C"/><use transform="matrix(0.05,0,0,0.05,43.9,0)" xlink:href="#D"/><use transform="matrix(0.05,0,0,0.05,54.85,0)" xlink:href="#E"/><use transform="matrix(0.05,0,0,0.05,65.8,0)" xlink:href="#C"/><use transform="matrix(0.05,0,0,0.05,75.8,0)" xlink:href="#E"/></g><path d="M133-34C117-15 103 5 69 4 32 3 11-16 11-54c-1-60 55-63 116-61 1-26-3-47-28-47-18 1-26 9-28 27l-52-2c7-38 36-58 82-57s74 22 75 68l1 82c-1 14 12 18 25 15v27c-30 8-71 5-69-32zm-48 3c29 0 43-24 42-57-32 0-66-3-65 30 0 17 8 27 23 27" id="F"/><path d="M190-63c-7 42-38 67-86 67-59 0-84-38-90-98-12-110 154-137 174-36l-49 2c-2-19-15-32-35-32-30 0-35 28-38 64-6 74 65 87 74 30" id="G"/><path d="M147 0L96-86 75-71V0H25v-261h50v150l67-79h53l-66 74L201 0h-54" id="H"/><g id="c"><use transform="matrix(0.05,0,0,0.05,0,0)" xlink:href="#x"/><use transform="matrix(0.05,0,0,0.05,12,0)" xlink:href="#B"/><use transform="matrix(0.05,0,0,0.05,17.95,0)" xlink:href="#F"/><use transform="matrix(0.05,0,0,0.05,27.950000000000003,0)" xlink:href="#G"/><use transform="matrix(0.05,0,0,0.05,37.95,0)" xlink:href="#H"/></g><path d="M110-194c64 0 96 36 96 99 0 64-35 99-97 99-61 0-95-36-95-99 0-62 34-99 96-99zm-1 164c35 0 45-28 45-65 0-40-10-65-43-65-34 0-45 26-45 65 0 36 10 65 43 65" id="I"/><path d="M25-224v-37h50v37H25zM25 0v-190h50V0H25" id="J"/><path d="M135-150c-39-12-60 13-60 57V0H25l-1-190h47c2 13-1 29 3 40 6-28 27-53 61-41v41" id="K"/><path d="M102-93c0 74-22 123-52 168H0C30 29 54-18 53-93c0-74-22-123-53-168h50c30 45 52 94 52 168" id="L"/><g id="d"><use transform="matrix(0.05,0,0,0.05,0,0)" xlink:href="#y"/><use transform="matrix(0.05,0,0,0.05,12,0)" xlink:href="#I"/><use transform="matrix(0.05,0,0,0.05,22.950000000000003,0)" xlink:href="#J"/><use transform="matrix(0.05,0,0,0.05,27.950000000000003,0)" xlink:href="#D"/><use transform="matrix(0.05,0,0,0.05,38.900000000000006,0)" xlink:href="#B"/><use transform="matrix(0.05,0,0,0.05,44.85000000000001,0)" xlink:href="#C"/><use transform="matrix(0.05,0,0,0.05,54.85,0)" xlink:href="#K"/><use transform="matrix(0.05,0,0,0.05,61.85,0)" xlink:href="#L"/></g><path d="M160-131c35 5 61 23 61 61C221 17 115-2 30 0v-248c76 3 177-17 177 60 0 33-19 50-47 57zm-97-11c50-1 110 9 110-42 0-47-63-36-110-37v79zm0 115c55-2 124 14 124-45 0-56-70-42-124-44v89" id="M"/><path d="M84 4C-5 8 30-112 23-190h32v120c0 31 7 50 39 49 72-2 45-101 50-169h31l1 190h-30c-1-10 1-25-2-33-11 22-28 36-60 37" id="N"/><path d="M101-234c-31-9-42 10-38 44h38v23H63V0H32v-167H5v-23h27c-7-52 17-82 69-68v24" id="O"/><path d="M100-194c63 0 86 42 84 106H49c0 40 14 67 53 68 26 1 43-12 49-29l28 8c-11 28-37 45-77 45C44 4 14-33 15-96c1-61 26-98 85-98zm52 81c6-60-76-77-97-28-3 7-6 17-6 28h103" id="P"/><path d="M114-163C36-179 61-72 57 0H25l-1-190h30c1 12-1 29 2 39 6-27 23-49 58-41v29" id="Q"/><g id="e"><use transform="matrix(0.05,0,0,0.05,0,0)" xlink:href="#M"/><use transform="matrix(0.05,0,0,0.05,12,0)" xlink:href="#N"/><use transform="matrix(0.05,0,0,0.05,22,0)" xlink:href="#O"/><use transform="matrix(0.05,0,0,0.05,26.649999999999995,0)" xlink:href="#O"/><use transform="matrix(0.05,0,0,0.05,31.649999999999995,0)" xlink:href="#P"/><use transform="matrix(0.05,0,0,0.05,41.65,0)" xlink:href="#Q"/></g><path d="M185-189c-5-48-123-54-124 2 14 75 158 14 163 119 3 78-121 87-175 55-17-10-28-26-33-46l33-7c5 56 141 63 141-1 0-78-155-14-162-118-5-82 145-84 179-34 5 7 8 16 11 25" id="R"/><path d="M115-194c55 1 70 41 70 98S169 2 115 4C84 4 66-9 55-30l1 105H24l-1-265h31l2 30c10-21 28-34 59-34zm-8 174c40 0 45-34 45-75s-6-73-45-74c-42 0-51 32-51 76 0 43 10 73 51 73" id="S"/><path d="M141-36C126-15 110 5 73 4 37 3 15-17 15-53c-1-64 63-63 125-63 3-35-9-54-41-54-24 1-41 7-42 31l-33-3c5-37 33-52 76-52 45 0 72 20 72 64v82c-1 20 7 32 28 27v20c-31 9-61-2-59-35zM48-53c0 20 12 33 32 33 41-3 63-29 60-74-43 2-92-5-92 41" id="T"/><path d="M96-169c-40 0-48 33-48 73s9 75 48 75c24 0 41-14 43-38l32 2c-6 37-31 61-74 61-59 0-76-41-82-99-10-93 101-131 147-64 4 7 5 14 7 22l-32 3c-4-21-16-35-41-35" id="U"/><g id="f"><use transform="matrix(0.05,0,0,0.05,0,0)" xlink:href="#R"/><use transform="matrix(0.05,0,0,0.05,12,0)" xlink:href="#S"/><use transform="matrix(0.05,0,0,0.05,22,0)" xlink:href="#T"/><use transform="matrix(0.05,0,0,0.05,32,0)" xlink:href="#U"/><use transform="matrix(0.05,0,0,0.05,41,0)" xlink:href="#P"/></g><path d="M30 0v-248h187v28H63v79h144v27H63v87h162V0H30" id="V"/><path d="M30-248c87 1 191-15 191 75 0 78-77 80-158 76V0H30v-248zm33 125c57 0 124 11 124-50 0-59-68-47-124-48v98" id="W"/><g id="g"><use transform="matrix(0.05,0,0,0.05,0,0)" xlink:href="#V"/><use transform="matrix(0.05,0,0,0.05,12,0)" xlink:href="#M"/><use transform="matrix(0.05,0,0,0.05,24,0)" xlink:href="#W"/></g><path d="M87 75C49 33 22-17 22-94c0-76 28-126 65-167h31c-38 41-64 92-64 168S80 34 118 75H87" id="X"/><path d="M141 0L90-78 38 0H4l68-98-65-92h35l48 74 47-74h35l-64 92 68 98h-35" id="Y"/><path d="M59-47c-2 24 18 29 38 22v24C64 9 27 4 27-40v-127H5v-23h24l9-43h21v43h35v23H59v120" id="Z"/><path d="M117-194c89-4 53 116 60 194h-32v-121c0-31-8-49-39-48C34-167 62-67 57 0H25l-1-190h30c1 10-1 24 2 32 11-22 29-35 61-36" id="aa"/><path d="M85-194c31 0 48 13 60 33l-1-100h32l1 261h-30c-2-10 0-23-3-31C134-8 116 4 85 4 32 4 16-35 15-94c0-66 23-100 70-100zm9 24c-40 0-46 34-46 75 0 40 6 74 45 74 42 0 51-32 51-76 0-42-9-74-50-73" id="ab"/><g id="h"><use transform="matrix(0.05,0,0,0.05,0,0)" xlink:href="#X"/><use transform="matrix(0.05,0,0,0.05,5.95,0)" xlink:href="#V"/><use transform="matrix(0.05,0,0,0.05,17.95,0)" xlink:href="#Y"/><use transform="matrix(0.05,0,0,0.05,26.950000000000003,0)" xlink:href="#Z"/><use transform="matrix(0.05,0,0,0.05,31.950000000000003,0)" xlink:href="#P"/><use transform="matrix(0.05,0,0,0.05,41.95,0)" xlink:href="#aa"/><use transform="matrix(0.05,0,0,0.05,51.95,0)" xlink:href="#ab"/><use transform="matrix(0.05,0,0,0.05,61.95,0)" xlink:href="#P"/><use transform="matrix(0.05,0,0,0.05,71.95,0)" xlink:href="#ab"/></g><path d="M135-143c-3-34-86-38-87 0 15 53 115 12 119 90S17 21 10-45l28-5c4 36 97 45 98 0-10-56-113-15-118-90-4-57 82-63 122-42 12 7 21 19 24 35" id="ac"/><g id="i"><use transform="matrix(0.05,0,0,0.05,0,0)" xlink:href="#M"/><use transform="matrix(0.05,0,0,0.05,12,0)" xlink:href="#T"/><use transform="matrix(0.05,0,0,0.05,22,0)" xlink:href="#ac"/><use transform="matrix(0.05,0,0,0.05,31,0)" xlink:href="#P"/></g><path d="M100-194c62-1 85 37 85 99 1 63-27 99-86 99S16-35 15-95c0-66 28-99 85-99zM99-20c44 1 53-31 53-75 0-43-8-75-51-75s-53 32-53 75 10 74 51 75" id="ad"/><path d="M24-231v-30h32v30H24zM24 0v-190h32V0H24" id="ae"/><path d="M33-261c38 41 65 92 65 168S71 34 33 75H2C39 34 66-17 66-93S39-220 2-261h31" id="af"/><g id="j"><use transform="matrix(0.05,0,0,0.05,0,0)" xlink:href="#W"/><use transform="matrix(0.05,0,0,0.05,12,0)" xlink:href="#ad"/><use transform="matrix(0.05,0,0,0.05,22,0)" xlink:href="#ae"/><use transform="matrix(0.05,0,0,0.05,25.950000000000003,0)" xlink:href="#aa"/><use transform="matrix(0.05,0,0,0.05,35.95,0)" xlink:href="#Z"/><use transform="matrix(0.05,0,0,0.05,40.95,0)" xlink:href="#P"/><use transform="matrix(0.05,0,0,0.05,50.95,0)" xlink:href="#Q"/><use transform="matrix(0.05,0,0,0.05,56.900000000000006,0)" xlink:href="#af"/></g><path d="M33 0v-248h34V0H33" id="ag"/><g id="k"><use transform="matrix(0.05,0,0,0.05,0,0)" xlink:href="#V"/><use transform="matrix(0.05,0,0,0.05,12,0)" xlink:href="#ag"/><use transform="matrix(0.05,0,0,0.05,17,0)" xlink:href="#W"/></g><g id="l"><use transform="matrix(0.05,0,0,0.05,0,0)" xlink:href="#ag"/><use transform="matrix(0.05,0,0,0.05,5,0)" xlink:href="#aa"/><use transform="matrix(0.05,0,0,0.05,15,0)" xlink:href="#ac"/><use transform="matrix(0.05,0,0,0.05,24,0)" xlink:href="#Z"/><use transform="matrix(0.05,0,0,0.05,29,0)" xlink:href="#Q"/><use transform="matrix(0.05,0,0,0.05,34.95,0)" xlink:href="#N"/><use transform="matrix(0.05,0,0,0.05,44.95,0)" xlink:href="#U"/><use transform="matrix(0.05,0,0,0.05,53.95,0)" xlink:href="#Z"/><use transform="matrix(0.05,0,0,0.05,58.95,0)" xlink:href="#ae"/><use transform="matrix(0.05,0,0,0.05,62.900000000000006,0)" xlink:href="#ad"/><use transform="matrix(0.05,0,0,0.05,72.9,0)" xlink:href="#aa"/></g><g id="m"><use transform="matrix(0.05,0,0,0.05,0,0)" xlink:href="#W"/><use transform="matrix(0.05,0,0,0.05,12,0)" xlink:href="#ad"/><use transform="matrix(0.05,0,0,0.05,22,0)" xlink:href="#ae"/><use transform="matrix(0.05,0,0,0.05,25.950000000000003,0)" xlink:href="#aa"/><use transform="matrix(0.05,0,0,0.05,35.95,0)" xlink:href="#Z"/><use transform="matrix(0.05,0,0,0.05,40.95,0)" xlink:href="#P"/><use transform="matrix(0.05,0,0,0.05,50.95,0)" xlink:href="#Q"/><use transform="matrix(0.05,0,0,0.05,56.900000000000006,0)" xlink:href="#af"/></g><path d="M0 4l72-265h28L28 4H0" id="ah"/><use transform="matrix(0.05,0,0,0.05,0,0)" xlink:href="#ah" id="n"/><path d="M233-177c-1 41-23 64-60 70L243 0h-38l-65-103H63V0H30v-248c88 3 205-21 203 71zM63-129c60-2 137 13 137-47 0-61-80-42-137-45v92" id="ai"/><g id="o"><use transform="matrix(0.05,0,0,0.05,0,0)" xlink:href="#ai"/><use transform="matrix(0.05,0,0,0.05,12.950000000000001,0)" xlink:href="#P"/><use transform="matrix(0.05,0,0,0.05,22.950000000000003,0)" xlink:href="#Z"/><use transform="matrix(0.05,0,0,0.05,27.950000000000003,0)" xlink:href="#N"/><use transform="matrix(0.05,0,0,0.05,37.95,0)" xlink:href="#Q"/><use transform="matrix(0.05,0,0,0.05,43.900000000000006,0)" xlink:href="#aa"/></g><path d="M205 0l-28-72H64L36 0H1l101-248h38L239 0h-34zm-38-99l-47-123c-12 45-31 82-46 123h93" id="aj"/><g id="p"><use transform="matrix(0.05,0,0,0.05,0,0)" xlink:href="#aj"/><use transform="matrix(0.05,0,0,0.05,12,0)" xlink:href="#ab"/><use transform="matrix(0.05,0,0,0.05,22,0)" xlink:href="#ab"/><use transform="matrix(0.05,0,0,0.05,32,0)" xlink:href="#Q"/><use transform="matrix(0.05,0,0,0.05,37.95,0)" xlink:href="#P"/><use transform="matrix(0.05,0,0,0.05,47.95,0)" xlink:href="#ac"/><use transform="matrix(0.05,0,0,0.05,56.95,0)" xlink:href="#ac"/></g><g id="q"><use transform="matrix(0.05,0,0,0.05,0,0)" xlink:href="#aj"/><use transform="matrix(0.05,0,0,0.05,12,0)" xlink:href="#aj"/><use transform="matrix(0.05,0,0,0.05,24,0)" xlink:href="#aj"/><use transform="matrix(0.05,0,0,0.05,36,0)" xlink:href="#aj"/><use transform="matrix(0.05,0,0,0.05,48,0)" xlink:href="#aj"/><use transform="matrix(0.05,0,0,0.05,60,0)" xlink:href="#aj"/><use transform="matrix(0.05,0,0,0.05,72,0)" xlink:href="#aj"/><use transform="matrix(0.05,0,0,0.05,84,0)" xlink:href="#aj"/><use transform="matrix(0.05,0,0,0.05,96,0)" xlink:href="#aj"/><use transform="matrix(0.05,0,0,0.05,108,0)" xlink:href="#aj"/><use transform="matrix(0.05,0,0,0.05,120,0)" xlink:href="#aj"/><use transform="matrix(0.05,0,0,0.05,132,0)" xlink:href="#aj"/><use transform="matrix(0.05,0,0,0.05,144,0)" xlink:href="#aj"/><use transform="matrix(0.05,0,0,0.05,156,0)" xlink:href="#aj"/><use transform="matrix(0.05,0,0,0.05,168,0)" xlink:href="#aj"/><use transform="matrix(0.05,0,0,0.05,180,0)" xlink:href="#aj"/><use transform="matrix(0.05,0,0,0.05,192,0)" xlink:href="#aj"/><use transform="matrix(0.05,0,0,0.05,204,0)" xlink:href="#aj"/><use transform="matrix(0.05,0,0,0.05,216,0)" xlink:href="#aj"/><use transform="matrix(0.05,0,0,0.05,228,0)" xlink:href="#aj"/><use transform="matrix(0.05,0,0,0.05,240,0)" xlink:href="#aj"/><use transform="matrix(0.05,0,0,0.05,252,0)" xlink:href="#aj"/><use transform="matrix(0.05,0,0,0.05,264,0)" xlink:href="#aj"/><use transform="matrix(0.05,0,0,0.05,276,0)" xlink:href="#aj"/><use transform="matrix(0.05,0,0,0.05,288,0)" xlink:href="#aj"/><use transform="matrix(0.05,0,0,0.05,300,0)" xlink:href="#aj"/><use transform="matrix(0.05,0,0,0.05,312,0)" xlink:href="#aj"/></g><g id="r"><use transform="matrix(0.05,0,0,0.05,0,0)" xlink:href="#aj"/><use transform="matrix(0.05,0,0,0.05,12,0)" xlink:href="#aj"/><use transform="matrix(0.05,0,0,0.05,24,0)" xlink:href="#aj"/><use transform="matrix(0.05,0,0,0.05,36,0)" xlink:href="#aj"/><use transform="matrix(0.05,0,0,0.05,48,0)" xlink:href="#aj"/><use transform="matrix(0.05,0,0,0.05,60,0)" xlink:href="#aj"/><use transform="matrix(0.05,0,0,0.05,72,0)" xlink:href="#aj"/><use transform="matrix(0.05,0,0,0.05,84,0)" xlink:href="#aj"/><use transform="matrix(0.05,0,0,0.05,96,0)" xlink:href="#aj"/><use transform="matrix(0.05,0,0,0.05,108,0)" xlink:href="#aj"/><use transform="matrix(0.05,0,0,0.05,120,0)" xlink:href="#aj"/><use transform="matrix(0.05,0,0,0.05,132,0)" xlink:href="#aj"/><use transform="matrix(0.05,0,0,0.05,144,0)" xlink:href="#aj"/><use transform="matrix(0.05,0,0,0.05,156,0)" xlink:href="#aj"/><use transform="matrix(0.05,0,0,0.05,168,0)" xlink:href="#aj"/><use transform="matrix(0.05,0,0,0.05,180,0)" xlink:href="#aj"/><use transform="matrix(0.05,0,0,0.05,192,0)" xlink:href="#aj"/><use transform="matrix(0.05,0,0,0.05,204,0)" xlink:href="#aj"/><use transform="matrix(0.05,0,0,0.05,216,0)" xlink:href="#aj"/><use transform="matrix(0.05,0,0,0.05,228,0)" xlink:href="#aj"/><use transform="matrix(0.05,0,0,0.05,240,0)" xlink:href="#aj"/><use transform="matrix(0.05,0,0,0.05,252,0)" xlink:href="#aj"/><use transform="matrix(0.05,0,0,0.05,264,0)" xlink:href="#aj"/><use transform="matrix(0.05,0,0,0.05,276,0)" xlink:href="#aj"/><use transform="matrix(0.05,0,0,0.05,288,0)" xlink:href="#aj"/><use transform="matrix(0.05,0,0,0.05,300,0)" xlink:href="#aj"/><use transform="matrix(0.05,0,0,0.05,312,0)" xlink:href="#aj"/></g><path fill="#333" d="M140-251c81 0 123 46 123 126C263-46 219 4 140 4 59 4 17-45 17-125s42-126 123-126zm0 227c63 0 89-41 89-101s-29-99-89-99c-61 0-89 39-89 99S79-25 140-24" id="ak"/><path fill="#333" d="M101-234c-31-9-42 10-38 44h38v23H63V0H32v-167H5v-23h27c-7-52 17-82 69-68v24" id="al"/><path fill="#333" d="M135-143c-3-34-86-38-87 0 15 53 115 12 119 90S17 21 10-45l28-5c4 36 97 45 98 0-10-56-113-15-118-90-4-57 82-63 122-42 12 7 21 19 24 35" id="am"/><path fill="#333" d="M100-194c63 0 86 42 84 106H49c0 40 14 67 53 68 26 1 43-12 49-29l28 8c-11 28-37 45-77 45C44 4 14-33 15-96c1-61 26-98 85-98zm52 81c6-60-76-77-97-28-3 7-6 17-6 28h103" id="an"/><path fill="#333" d="M59-47c-2 24 18 29 38 22v24C64 9 27 4 27-40v-127H5v-23h24l9-43h21v43h35v23H59v120" id="ao"/><g id="t"><use transform="matrix(0.05,0,0,0.05,0,0)" xlink:href="#ak"/><use transform="matrix(0.05,0,0,0.05,14,0)" xlink:href="#al"/><use transform="matrix(0.05,0,0,0.05,18.65,0)" xlink:href="#al"/><use transform="matrix(0.05,0,0,0.05,23.65,0)" xlink:href="#am"/><use transform="matrix(0.05,0,0,0.05,32.65,0)" xlink:href="#an"/><use transform="matrix(0.05,0,0,0.05,42.65,0)" xlink:href="#ao"/></g><path fill="#333" d="M233-177c-1 41-23 64-60 70L243 0h-38l-65-103H63V0H30v-248c88 3 205-21 203 71zM63-129c60-2 137 13 137-47 0-61-80-42-137-45v92" id="ap"/><path fill="#333" d="M84 4C-5 8 30-112 23-190h32v120c0 31 7 50 39 49 72-2 45-101 50-169h31l1 190h-30c-1-10 1-25-2-33-11 22-28 36-60 37" id="aq"/><path fill="#333" d="M114-163C36-179 61-72 57 0H25l-1-190h30c1 12-1 29 2 39 6-27 23-49 58-41v29" id="ar"/><path fill="#333" d="M117-194c89-4 53 116 60 194h-32v-121c0-31-8-49-39-48C34-167 62-67 57 0H25l-1-190h30c1 10-1 24 2 32 11-22 29-35 61-36" id="as"/><g id="u"><use transform="matrix(0.05,0,0,0.05,0,0)" xlink:href="#ap"/><use transform="matrix(0.05,0,0,0.05,12.950000000000001,0)" xlink:href="#an"/><use transform="matrix(0.05,0,0,0.05,22.950000000000003,0)" xlink:href="#ao"/><use transform="matrix(0.05,0,0,0.05,27.950000000000003,0)" xlink:href="#aq"/><use transform="matrix(0.05,0,0,0.05,37.95,0)" xlink:href="#ar"/><use transform="matrix(0.05,0,0,0.05,43.900000000000006,0)" xlink:href="#as"/></g><path fill="#333" d="M205 0l-28-72H64L36 0H1l101-248h38L239 0h-34zm-38-99l-47-123c-12 45-31 82-46 123h93" id="at"/><path fill="#333" d="M85-194c31 0 48 13 60 33l-1-100h32l1 261h-30c-2-10 0-23-3-31C134-8 116 4 85 4 32 4 16-35 15-94c0-66 23-100 70-100zm9 24c-40 0-46 34-46 75 0 40 6 74 45 74 42 0 51-32 51-76 0-42-9-74-50-73" id="au"/><g id="v"><use transform="matrix(0.05,0,0,0.05,0,0)" xlink:href="#at"/><use transform="matrix(0.05,0,0,0.05,12,0)" xlink:href="#au"/><use transform="matrix(0.05,0,0,0.05,22,0)" xlink:href="#au"/><use transform="matrix(0.05,0,0,0.05,32,0)" xlink:href="#ar"/><use transform="matrix(0.05,0,0,0.05,37.95,0)" xlink:href="#an"/><use transform="matrix(0.05,0,0,0.05,47.95,0)" xlink:href="#am"/><use transform="matrix(0.05,0,0,0.05,56.95,0)" xlink:href="#am"/></g></defs></g></svg>