<svg width="32" height="32" viewBox="0 0 32 32" fill="none" xmlns="http://www.w3.org/2000/svg">
<rect width="32" height="32" rx="12.5714" fill="url(#paint0_linear_8254_99739)"/>
<path d="M12.5949 8.25059C12.6086 8.25059 13.2034 8.20804 14.3795 8.12293C15.5522 8.04098 16.147 8 16.1641 8C16.359 8 16.4564 8.05989 16.4564 8.17967C16.4564 8.31521 16.0462 9.90071 15.2257 12.9362C14.4052 15.9685 13.9949 17.5146 13.9949 17.5745C14.4393 17.3349 14.7522 17.1458 14.9334 17.0071C15.1111 16.8716 15.4872 16.5469 16.0616 16.0331C17.0462 15.1253 17.7368 14.5579 18.1334 14.331C18.7898 13.9212 19.412 13.7163 20 13.7163C20.4923 13.7163 20.8821 13.8676 21.1693 14.1702C21.4564 14.4728 21.6 14.8747 21.6 15.3759C21.6 15.9212 21.4616 16.3641 21.1846 16.7045C20.9043 17.0449 20.5094 17.2151 20 17.2151C19.6889 17.2151 19.4308 17.1316 19.2257 16.9645C19.0205 16.7975 18.918 16.5784 18.918 16.3073C18.918 15.9291 19.0581 15.6076 19.3385 15.3428C19.6154 15.078 19.9436 14.922 20.3231 14.8747L20.4923 14.8322C20.2975 14.6493 20.1009 14.5579 19.9026 14.5579C19.3453 14.5579 18.6889 14.8148 17.9334 15.3286C17.6222 15.5556 17.147 15.9638 16.5077 16.5532C15.7522 17.234 15.1932 17.7037 14.8308 17.9622C15.6205 18.1292 16.147 18.2585 16.4103 18.3499C17.1966 18.6367 17.7214 19.0292 17.9846 19.5272C18.1316 19.8014 18.2052 20.0961 18.2052 20.4113C18.2052 20.6099 18.1607 20.9362 18.0718 21.3901C17.9795 21.844 17.9334 22.1308 17.9334 22.2506C17.9334 22.8558 18.1556 23.1584 18.6 23.1584C18.894 23.1584 19.1641 23.0449 19.4103 22.818C19.8205 22.4397 20.1898 21.6533 20.518 20.4586C20.5522 20.3389 20.7163 20.279 21.0103 20.279C21.2393 20.279 21.371 20.2931 21.4052 20.3215C21.5043 20.3814 21.5128 20.5406 21.4308 20.7991C20.9863 22.1765 20.4205 23.1064 19.7334 23.5887C19.3231 23.8629 18.9197 24 18.5231 24C17.771 24 17.1693 23.792 16.718 23.3759C16.2667 22.9598 16.041 22.4035 16.041 21.7069C16.041 21.5713 16.065 21.3601 16.1128 21.0733C16.1607 20.7833 16.1846 20.5784 16.1846 20.4586C16.1846 20.2632 16.1368 20.0741 16.041 19.8913C15.8257 19.513 15.4222 19.2183 14.8308 19.0071C14.2906 18.84 13.9146 18.7565 13.7026 18.7565H13.6513L13.3539 19.8014C13.1761 20.4823 12.9846 21.2009 12.7795 21.9574C12.5744 22.7139 12.4462 23.1521 12.3949 23.2719C12.3128 23.4705 12.1658 23.6407 11.9539 23.7825C11.7385 23.9275 11.5077 24 11.2616 24C11.0667 24 10.8752 23.9433 10.6872 23.8298C10.4958 23.7163 10.4 23.5682 10.4 23.3853C10.4 23.234 10.7009 22.0236 11.3026 19.7541C11.9009 17.4846 12.5026 15.253 13.1077 13.0591L14.0205 9.76832C14.0547 9.55713 14.0017 9.42474 13.8616 9.37116C13.7214 9.31757 13.4872 9.29078 13.159 9.29078C13.1111 9.29078 13.0787 9.29078 13.0616 9.29078C13.0445 9.29078 13.0188 9.29078 12.9846 9.29078C12.9539 9.29078 12.9214 9.29078 12.8872 9.29078C12.5419 9.29078 12.3453 9.26872 12.2975 9.22459C12.1983 9.14894 12.1898 8.96769 12.2718 8.68085C12.3368 8.46966 12.3949 8.34831 12.4462 8.31679C12.494 8.27266 12.5436 8.25059 12.5949 8.25059Z" fill="#13181F"/>
<defs>
<linearGradient id="paint0_linear_8254_99739" x1="0" y1="0" x2="32.79" y2="0.733094" gradientUnits="userSpaceOnUse">
<stop stopColor="#8FCDFC"/>
<stop offset="1" stopColor="#C09CFF"/>
</linearGradient>
</defs>
</svg>
