<svg xmlns="http://www.w3.org/2000/svg" width="169.159" height="28.778"><g data-name="Group 133"><g data-name="Group 122"><path data-name="Path 3243" d="M97.483 22.295h3.711l3.938-13.875h-3.885Z" fill="#ff006d"/><path data-name="Path 3244" d="M23.918 11.213a4.989 4.989 0 0 0-1.971.383 4.365 4.365 0 0 0-1.53 1.071 4.821 4.821 0 0 0-.976 1.646 6.173 6.173 0 0 0-.344 2.1v.269h9.261v-.383a5.515 5.515 0 0 0-1.186-3.693 4.042 4.042 0 0 0-3.253-1.4m0 17.565a9.561 9.561 0 0 1-3.826-.727 7.923 7.923 0 0 1-2.87-2.086 9.34 9.34 0 0 1-1.818-3.291 15 15 0 0 1 0-8.61 9.352 9.352 0 0 1 1.818-3.291 7.941 7.941 0 0 1 2.87-2.086 9.568 9.568 0 0 1 3.826-.727 9.12 9.12 0 0 1 3.846.766 7.662 7.662 0 0 1 2.774 2.124A9.244 9.244 0 0 1 32.204 14a13.077 13.077 0 0 1 .554 3.865v1.569H19.096v.646a5.286 5.286 0 0 0 1.358 3.745 5.036 5.036 0 0 0 3.884 1.464 5.691 5.691 0 0 0 3.1-.8 6.968 6.968 0 0 0 2.143-2.168l2.446 2.427a7.9 7.9 0 0 1-3.214 2.936 10.481 10.481 0 0 1-4.9 1.094" fill="#fff"/><g data-name="Group 120" fill="#fff"><path data-name="Path 3245" d="M116.809 11.213a4.988 4.988 0 0 0-1.971.383 4.363 4.363 0 0 0-1.531 1.071 4.821 4.821 0 0 0-.976 1.646 6.174 6.174 0 0 0-.344 2.1v.269h9.261v-.383a5.514 5.514 0 0 0-1.187-3.693 4.042 4.042 0 0 0-3.253-1.4m0 17.565a9.567 9.567 0 0 1-3.827-.727 7.922 7.922 0 0 1-2.87-2.086 9.334 9.334 0 0 1-1.818-3.291 15 15 0 0 1 0-8.61 9.346 9.346 0 0 1 1.818-3.291 7.94 7.94 0 0 1 2.87-2.086 9.573 9.573 0 0 1 3.827-.727 9.121 9.121 0 0 1 3.846.766 7.664 7.664 0 0 1 2.774 2.124A9.238 9.238 0 0 1 125.093 14a13.065 13.065 0 0 1 .555 3.865v1.569h-13.661v.646a5.287 5.287 0 0 0 1.358 3.745 5.036 5.036 0 0 0 3.884 1.464 5.692 5.692 0 0 0 3.1-.8 6.973 6.973 0 0 0 2.143-2.168l2.445 2.427a7.9 7.9 0 0 1-3.214 2.936 10.481 10.481 0 0 1-4.9 1.094"/><path data-name="Path 3246" d="M138.086 11.213a4.987 4.987 0 0 0-1.971.383 4.367 4.367 0 0 0-1.531 1.071 4.821 4.821 0 0 0-.976 1.646 6.165 6.165 0 0 0-.344 2.1v.269h9.261v-.383a5.517 5.517 0 0 0-1.186-3.693 4.044 4.044 0 0 0-3.253-1.4m0 17.565a9.561 9.561 0 0 1-3.826-.727 7.923 7.923 0 0 1-2.87-2.086 9.333 9.333 0 0 1-1.818-3.291 15 15 0 0 1 0-8.61 9.346 9.346 0 0 1 1.818-3.291 7.941 7.941 0 0 1 2.87-2.086 9.567 9.567 0 0 1 3.826-.727 9.12 9.12 0 0 1 3.846.766 7.661 7.661 0 0 1 2.774 2.124A9.224 9.224 0 0 1 146.371 14a13.064 13.064 0 0 1 .555 3.865v1.569h-13.657v.646a5.287 5.287 0 0 0 1.358 3.745 5.037 5.037 0 0 0 3.884 1.464 5.691 5.691 0 0 0 3.1-.8 6.968 6.968 0 0 0 2.143-2.168l2.449 2.418a7.9 7.9 0 0 1-3.214 2.936 10.481 10.481 0 0 1-4.9 1.094"/></g><path data-name="Path 3247" d="M151.556 0h4.171v16.515l.191-.215 2.755-2.915 4.569-4.966h5.074l-6.964 7.692 7.807 12.208h-4.975l-5.7-9.491-2.755 2.985v6.506h-4.171Z" fill="#fff"/><path data-name="Path 3248" d="M71.619 9.969a5.905 5.905 0 0 0-4.764-2.009h-.032a10.9 10.9 0 0 0-5.747 1.291V-.002h-4.173v28.319h4.171V14.963a3 3 0 0 1 .363-1.492 3.152 3.152 0 0 1 .976-1.072 4.514 4.514 0 0 1 1.4-.631 6.121 6.121 0 0 1 1.588-.211q3.749 0 3.75 4.631v12.131h4.171V15.69a8.606 8.606 0 0 0-1.703-5.721Z" fill="#fff"/><path data-name="Path 3249" d="M49.749 22.004a6.286 6.286 0 0 1-1.741 2.392 4.458 4.458 0 0 1-2.927.9 4.206 4.206 0 0 1-3.463-1.431 6.142 6.142 0 0 1-1.17-2.2 10.435 10.435 0 0 1-.485-3.716 8.191 8.191 0 0 1 .989-4.1c.052-.093.106-.183.161-.273l.017-.027.02-.03a6.753 6.753 0 0 1 .47-.651 4.206 4.206 0 0 1 3.463-1.431 4.38 4.38 0 0 1 2.774.823 4.314 4.314 0 0 1 1.473 2.2l3.444-1.607a7.718 7.718 0 0 0-2.795-3.554 8.355 8.355 0 0 0-4.9-1.339 9.567 9.567 0 0 0-3.827.727 7.594 7.594 0 0 0-2.831 2.086 9.446 9.446 0 0 0-1.76 3.291 15.434 15.434 0 0 0 0 8.61 9.434 9.434 0 0 0 1.76 3.291 7.583 7.583 0 0 0 2.831 2.086 9.567 9.567 0 0 0 3.827.727 8.62 8.62 0 0 0 4.86-1.316 7.953 7.953 0 0 0 2.985-3.774Z" fill="#fff"/><path data-name="Path 3250" d="M99.56 28.315h-3.67l-6.653-19.9h3.455Z" fill="#fff"/><path data-name="Path 3251" d="M82.376 28.315h3.67l6.643-19.9h-3.455Z" fill="#fff"/><path data-name="Path 3252" d="M86.046 28.315h-3.67l-5.582-19.9h3.885Z" fill="#fff"/><g data-name="Group 121"><path data-name="Path 3253" d="m3.614 24.236 4 2.039V11.637h4.275V7.922H7.614V2.353h-4Z" fill="#fff"/><path data-name="Rectangle 1149" fill="#fff" d="M7.311 24.24h3.966v4.071H7.311z"/><path data-name="Rectangle 1150" fill="#ff006d" d="M0 7.922h3.611v3.715H0z"/><path data-name="Path 3254" d="m3.614 24.237 3.247 4.075h.752v-4.071Z" fill="#fff"/></g></g></g></svg>