<svg xmlns="http://www.w3.org/2000/svg" xmlns:xlink="http://www.w3.org/1999/xlink" xmlns:lucid="lucid" width="860" height="220" /><g transform="translate(-320 -300)" lucid:page-tab-id="jwLSA5rq4zzn" /><path d="M0 0h1760v1360H0z" fill="#fff"/><path d="M340 420h140v39H340z" stroke="#333" stroke-width="2" fill="#c3f7c8"/><use xlink:href="#a" transform="matrix(1,0,0,1,348,428) translate(22.224999999999994 15.1)"/><use xlink:href="#b" transform="matrix(1,0,0,1,348,428) translate(65.82499999999999 15.1)"/><path d="M480 420h320v39H480z" stroke="#333" stroke-width="2" fill="#e81313"/><use xlink:href="#c" transform="matrix(1,0,0,1,488,428) translate(109.57499999999999 15.1)"/><path d="M800 420h180v39H800z" stroke="#333" stroke-width="2" fill="#6db1ff"/><use xlink:href="#d" transform="matrix(1,0,0,1,808,428) translate(38.12499999999999 15.1)"/><path d="M980 420h180v39H980z" stroke="#333" stroke-width="2" fill="#9391ff"/><use xlink:href="#e" transform="matrix(1,0,0,1,988,428) translate(14.674999999999997 15.1)"/><use xlink:href="#f" transform="matrix(1,0,0,1,988,428) translate(77.475 15.1)"/><path d="M1020 460h100v40h-100z" stroke="#000" stroke-opacity="0" stroke-width="2" fill="#fff" fill-opacity="0"/><use xlink:href="#g" transform="matrix(1,0,0,1,1025,465) translate(2.624999999999993 18.6)"/><use xlink:href="#h" transform="matrix(1,0,0,1,1025,465) translate(13.574999999999992 18.6)"/><use xlink:href="#i" transform="matrix(1,0,0,1,1025,465) translate(29.52499999999999 18.6)"/><use xlink:href="#j" transform="matrix(1,0,0,1,1025,465) translate(81.42500000000001 18.6)"/><path d="M360 460h100v40H360z" stroke="#000" stroke-opacity="0" stroke-width="2" fill="#fff" fill-opacity="0"/><use xlink:href="#g" transform="matrix(1,0,0,1,365,465) translate(3.0999999999999943 18.6)"/><use xlink:href="#k" transform="matrix(1,0,0,1,365,465) translate(14.049999999999994 18.6)"/><use xlink:href="#i" transform="matrix(1,0,0,1,365,465) translate(29.049999999999994 18.6)"/><use xlink:href="#j" transform="matrix(1,0,0,1,365,465) translate(80.95 18.6)"/><path d="M590 460h100v40H590z" stroke="#000" stroke-opacity="0" stroke-width="2" fill="#fff" fill-opacity="0"/><g /><use xlink:href="#g" transform="matrix(1,0,0,1,595,465) translate(3.0999999999999943 18.6)"/><use xlink:href="#l" transform="matrix(1,0,0,1,595,465) translate(14.049999999999994 18.6)"/><use xlink:href="#i" transform="matrix(1,0,0,1,595,465) translate(29.049999999999994 18.6)"/><use xlink:href="#j" transform="matrix(1,0,0,1,595,465) translate(80.95 18.6)"/></g><path d="M840 460h100v40H840z" stroke="#000" stroke-opacity="0" stroke-width="2" fill="#fff" fill-opacity="0"/><g /><use xlink:href="#g" transform="matrix(1,0,0,1,845,465) translate(3.5999999999999943 18.6)"/><use xlink:href="#m" transform="matrix(1,0,0,1,845,465) translate(14.549999999999994 18.6)"/><use xlink:href="#i" transform="matrix(1,0,0,1,845,465) translate(28.549999999999994 18.6)"/><use xlink:href="#j" transform="matrix(1,0,0,1,845,465) translate(80.45 18.6)"/></g><g fill="none" /><path d="M980 320v80H340v-80z"/><path d="M340 400c0-5.52 4.48-10 10-10h300c5.52 0 10-4.48 10-10 0 5.52 4.48 10 10 10h300c5.52 0 10 4.48 10 10" stroke="#333" stroke-width="2"/></g><g /><use xlink:href="#n" transform="matrix(1,-2.4492935982947064e-16,2.4492935982947064e-16,1,345.00000000000006,325.0000000000001) translate(289.25 23.6)"/></g><defs /><path d="M175 0L67-191c6 58 2 128 3 191H24v-248h59L193-55c-6-58-2-129-3-193h46V0h-61" id="o"/><path d="M140-251c80 0 125 45 125 126S219 4 139 4C58 4 15-44 15-125s44-126 125-126zm-1 214c52 0 73-35 73-88 0-50-21-86-72-86-52 0-73 35-73 86s22 88 72 88" id="p"/><path d="M24-248c93 1 206-16 204 79-1 75-69 88-152 82V0H24v-248zm52 121c47 0 100 7 100-41 0-47-54-39-100-39v80" id="q"/><g id="a" /><use transform="matrix(0.05,0,0,0.05,0,0)" xlink:href="#o"/><use transform="matrix(0.05,0,0,0.05,12.950000000000001,0)" xlink:href="#p"/><use transform="matrix(0.05,0,0,0.05,26.950000000000003,0)" xlink:href="#q"/></g><path d="M137-138c1-29-70-34-71-4 15 46 118 7 119 86 1 83-164 76-172 9l43-7c4 19 20 25 44 25 33 8 57-30 24-41C81-84 22-81 20-136c-2-80 154-74 161-7" id="r"/><path d="M25 0v-261h50V0H25" id="s"/><path d="M185-48c-13 30-37 53-82 52C43 2 14-33 14-96s30-98 90-98c62 0 83 45 84 108H66c0 31 8 55 39 56 18 0 30-7 34-22zm-45-69c5-46-57-63-70-21-2 6-4 13-4 21h74" id="t"/><path d="M88-194c31-1 46 15 58 34l-1-101h50l1 261h-48c-2-10 0-23-3-31C134-8 116 4 84 4 32 4 16-41 15-95c0-56 19-97 73-99zm17 164c33 0 40-30 41-66 1-37-9-64-41-64s-38 30-39 65c0 43 13 65 39 65" id="u"/><g id="b" /><use transform="matrix(0.05,0,0,0.05,0,0)" xlink:href="#r"/><use transform="matrix(0.05,0,0,0.05,10,0)" xlink:href="#s"/><use transform="matrix(0.05,0,0,0.05,15,0)" xlink:href="#t"/><use transform="matrix(0.05,0,0,0.05,25,0)" xlink:href="#u"/></g><path d="M169-182c-1-43-94-46-97-3 18 66 151 10 154 114 3 95-165 93-204 36-6-8-10-19-12-30l50-8c3 46 112 56 116 5-17-69-150-10-154-114-4-87 153-88 188-35 5 8 8 18 10 28" id="v"/><path d="M114-157C55-157 80-60 75 0H25v-261h50l-1 109c12-26 28-41 61-42 86-1 58 113 63 194h-50c-7-57 23-157-34-157" id="w"/><path d="M190-63c-7 42-38 67-86 67-59 0-84-38-90-98-12-110 154-137 174-36l-49 2c-2-19-15-32-35-32-30 0-35 28-38 64-6 74 65 87 74 30" id="x"/><path d="M110-194c64 0 96 36 96 99 0 64-35 99-97 99-61 0-95-36-95-99 0-62 34-99 96-99zm-1 164c35 0 45-28 45-65 0-40-10-65-43-65-34 0-45 26-45 65 0 36 10 65 43 65" id="y"/><g id="c" /><use transform="matrix(0.05,0,0,0.05,0,0)" xlink:href="#v"/><use transform="matrix(0.05,0,0,0.05,12,0)" xlink:href="#w"/><use transform="matrix(0.05,0,0,0.05,22.950000000000003,0)" xlink:href="#t"/><use transform="matrix(0.05,0,0,0.05,32.95,0)" xlink:href="#s"/><use transform="matrix(0.05,0,0,0.05,37.95,0)" xlink:href="#s"/><use transform="matrix(0.05,0,0,0.05,42.95,0)" xlink:href="#x"/><use transform="matrix(0.05,0,0,0.05,52.95,0)" xlink:href="#y"/><use transform="matrix(0.05,0,0,0.05,63.900000000000006,0)" xlink:href="#u"/><use transform="matrix(0.05,0,0,0.05,74.85000000000001,0)" xlink:href="#t"/></g><path d="M199 0l-22-63H83L61 0H9l90-248h61L250 0h-51zm-33-102l-36-108c-10 38-24 72-36 108h72" id="z"/><path d="M25-224v-37h50v37H25zM25 0v-190h50V0H25" id="A"/><path d="M195-6C206 82 75 100 31 46c-4-6-6-13-8-21l49-6c3 16 16 24 34 25 40 0 42-37 40-79-11 22-30 35-61 35-53 0-70-43-70-97 0-56 18-96 73-97 30 0 46 14 59 34l2-30h47zm-90-29c32 0 41-27 41-63 0-35-9-62-40-62-32 0-39 29-40 63 0 36 9 62 39 62" id="B"/><path d="M135-194c87-1 58 113 63 194h-50c-7-57 23-157-34-157-59 0-34 97-39 157H25l-1-190h47c2 12-1 28 3 38 12-26 28-41 61-42" id="C"/><path d="M220-157c-53 9-28 100-34 157h-49v-107c1-27-5-49-29-50C55-147 81-57 75 0H25l-1-190h47c2 12-1 28 3 38 10-53 101-56 108 0 13-22 24-43 59-42 82 1 51 116 57 194h-49v-107c-1-25-5-48-29-50" id="D"/><path d="M115-3C79 11 28 4 28-45v-112H4v-33h27l15-45h31v45h36v33H77v99c-1 23 16 31 38 25v30" id="E"/><g id="d" /><use transform="matrix(0.05,0,0,0.05,0,0)" xlink:href="#z"/><use transform="matrix(0.05,0,0,0.05,12.950000000000001,0)" xlink:href="#s"/><use transform="matrix(0.05,0,0,0.05,17.950000000000003,0)" xlink:href="#A"/><use transform="matrix(0.05,0,0,0.05,22.950000000000003,0)" xlink:href="#B"/><use transform="matrix(0.05,0,0,0.05,33.900000000000006,0)" xlink:href="#C"/><use transform="matrix(0.05,0,0,0.05,44.85000000000001,0)" xlink:href="#D"/><use transform="matrix(0.05,0,0,0.05,60.85,0)" xlink:href="#t"/><use transform="matrix(0.05,0,0,0.05,70.85000000000001,0)" xlink:href="#C"/><use transform="matrix(0.05,0,0,0.05,81.80000000000001,0)" xlink:href="#E"/></g><path d="M240-174c0 40-23 61-54 70L253 0h-59l-57-94H76V0H24v-248c93 4 217-23 216 74zM76-134c48-2 112 12 112-38 0-48-66-32-112-35v73" id="F"/><path d="M85 4C-2 5 27-109 22-190h50c7 57-23 150 33 157 60-5 35-97 40-157h50l1 190h-47c-2-12 1-28-3-38-12 25-28 42-61 42" id="G"/><path d="M135-150c-39-12-60 13-60 57V0H25l-1-190h47c2 13-1 29 3 40 6-28 27-53 61-41v41" id="H"/><g id="e" /><use transform="matrix(0.05,0,0,0.05,0,0)" xlink:href="#F"/><use transform="matrix(0.05,0,0,0.05,12.950000000000001,0)" xlink:href="#t"/><use transform="matrix(0.05,0,0,0.05,22.950000000000003,0)" xlink:href="#E"/><use transform="matrix(0.05,0,0,0.05,28.900000000000002,0)" xlink:href="#G"/><use transform="matrix(0.05,0,0,0.05,39.85,0)" xlink:href="#H"/><use transform="matrix(0.05,0,0,0.05,46.85,0)" xlink:href="#C"/></g><g id="f" /><use transform="matrix(0.05,0,0,0.05,0,0)" xlink:href="#z"/><use transform="matrix(0.05,0,0,0.05,12.950000000000001,0)" xlink:href="#u"/><use transform="matrix(0.05,0,0,0.05,23.900000000000002,0)" xlink:href="#u"/><use transform="matrix(0.05,0,0,0.05,34.85,0)" xlink:href="#H"/><use transform="matrix(0.05,0,0,0.05,41.85,0)" xlink:href="#t"/><use transform="matrix(0.05,0,0,0.05,51.85,0)" xlink:href="#r"/><use transform="matrix(0.05,0,0,0.05,61.85,0)" xlink:href="#r"/></g><path fill="#333" d="M20 75v-336h95v34H67V41h48v34H20" id="I"/><use transform="matrix(0.05,0,0,0.05,0,0)" xlink:href="#I" id="g"/><path fill="#333" d="M135-194c87-1 58 113 63 194h-50c-7-57 23-157-34-157-59 0-34 97-39 157H25l-1-190h47c2 12-1 28 3 38 12-26 28-41 61-42" id="J"/><use transform="matrix(0.05,0,0,0.05,0,0)" xlink:href="#J" id="h"/><path fill="#333" d="M135-194c52 0 70 43 70 98 0 56-19 99-73 100-30 1-46-15-58-35L72 0H24l1-261h50v104c11-23 29-37 60-37zM114-30c31 0 40-27 40-66 0-37-7-63-39-63s-41 28-41 65c0 36 8 64 40 64" id="K"/><path fill="#333" d="M123 10C108 53 80 86 19 72V37c35 8 53-11 59-39L3-190h52l48 148c12-52 28-100 44-148h51" id="L"/><path fill="#333" d="M115-3C79 11 28 4 28-45v-112H4v-33h27l15-45h31v45h36v33H77v99c-1 23 16 31 38 25v30" id="M"/><path fill="#333" d="M185-48c-13 30-37 53-82 52C43 2 14-33 14-96s30-98 90-98c62 0 83 45 84 108H66c0 31 8 55 39 56 18 0 30-7 34-22zm-45-69c5-46-57-63-70-21-2 6-4 13-4 21h74" id="N"/><path fill="#333" d="M137-138c1-29-70-34-71-4 15 46 118 7 119 86 1 83-164 76-172 9l43-7c4 19 20 25 44 25 33 8 57-30 24-41C81-84 22-81 20-136c-2-80 154-74 161-7" id="O"/><g id="i" /><use transform="matrix(0.05,0,0,0.05,0,0)" xlink:href="#K"/><use transform="matrix(0.05,0,0,0.05,10.950000000000001,0)" xlink:href="#L"/><use transform="matrix(0.05,0,0,0.05,20.950000000000003,0)" xlink:href="#M"/><use transform="matrix(0.05,0,0,0.05,26.900000000000002,0)" xlink:href="#N"/><use transform="matrix(0.05,0,0,0.05,36.900000000000006,0)" xlink:href="#O"/></g><path fill="#333" d="M4 75V41h49v-268H4v-34h96V75H4" id="P"/><use transform="matrix(0.05,0,0,0.05,0,0)" xlink:href="#P" id="j"/><path fill="#333" d="M144 0l-44-69L55 0H2l70-98-66-92h53l41 62 40-62h54l-67 91 71 99h-54" id="Q"/><use transform="matrix(0.05,0,0,0.05,0,0)" xlink:href="#Q" id="k"/><use transform="matrix(0.05,0,0,0.05,0,0)" xlink:href="#L" id="l"/><path fill="#333" d="M12 0v-35l95-120H19v-35h142v35L67-36h103V0H12" id="R"/><use transform="matrix(0.05,0,0,0.05,0,0)" xlink:href="#R" id="m"/><path fill="#333" d="M18-101c0-91 52-150 145-150 68 0 111 34 111 101C274-54 221 4 128 4 59 4 18-33 18-101zm202-32c4-46-15-77-59-77-65 0-88 46-91 108-2 41 22 65 60 65 60 0 84-40 90-96" id="S"/><path fill="#333" d="M93-157L62 0H13l31-157H16l6-33h28c2-54 40-81 100-68l-6 32c-29-8-44 9-45 36h38l-7 33H93" id="T"/><path fill="#333" d="M144-137c-1-29-70-35-71-2 16 41 103 10 103 80C176 9 79 16 32-9 18-17 9-31 4-48l44-6c3 32 80 36 82 1-15-42-103-11-103-82 0-77 157-79 161-8" id="U"/><path fill="#333" d="M114-194c63-2 87 48 72 110H63c-3 28 1 55 31 54 21-1 32-13 37-29l44 13C160-14 137 4 91 4 41 4 11-22 11-73c0-71 33-119 103-121zm30 77c14-47-50-61-67-22-3 6-6 13-8 22h75" id="V"/><path fill="#333" d="M72-63c-8 23 5 39 32 30L98-1C54 14 12-6 23-64l18-93H15l7-33h28l24-45h31l-8 45h35l-6 33H90" id="W"/><g id="n" /><use transform="matrix(0.05,0,0,0.05,0,0)" xlink:href="#S"/><use transform="matrix(0.05,0,0,0.05,14,0)" xlink:href="#T"/><use transform="matrix(0.05,0,0,0.05,19.6,0)" xlink:href="#T"/><use transform="matrix(0.05,0,0,0.05,25.55,0)" xlink:href="#U"/><use transform="matrix(0.05,0,0,0.05,35.55,0)" xlink:href="#V"/><use transform="matrix(0.05,0,0,0.05,45.55,0)" xlink:href="#W"/></g></defs></g></svg>
